<mxfile host="app.diagrams.net" modified="2023-11-27T14:23:55.947Z" agent="Mozilla/5.0 (Windows NT 10.0; Win64; x64) AppleWebKit/537.36 (KHTML, like Gecko) Chrome/119.0.0.0 Safari/537.36" etag="2jijaBarQln1BlkWDsaZ" version="22.1.4" type="device">
  <diagram name="1 oldal" id="a7NIlOpxbDeCxrMRstzA">
    <mxGraphModel dx="1147" dy="693" grid="1" gridSize="10" guides="1" tooltips="1" connect="1" arrows="1" fold="1" page="1" pageScale="1" pageWidth="827" pageHeight="1169" math="0" shadow="0">
      <root>
        <mxCell id="0" />
        <mxCell id="1" parent="0" />
        <mxCell id="K2q1J-WdzYa1QJRRbtLY-2" value="" style="rounded=0;whiteSpace=wrap;html=1;fillColor=#d5e8d4;strokeColor=none;" vertex="1" parent="1">
          <mxGeometry x="80" y="80" width="680" height="520" as="geometry" />
        </mxCell>
        <mxCell id="K2q1J-WdzYa1QJRRbtLY-3" value="&lt;h1&gt;&lt;font face=&quot;Lucida Console&quot;&gt;Raspberry Pi Zero&lt;/font&gt;&lt;/h1&gt;" style="rounded=0;whiteSpace=wrap;html=1;fillColor=#005200;fontColor=#ffffff;strokeColor=none;" vertex="1" parent="1">
          <mxGeometry x="200" y="90" width="440" height="160" as="geometry" />
        </mxCell>
        <mxCell id="K2q1J-WdzYa1QJRRbtLY-4" value="5V&lt;br&gt;&lt;br&gt;A0&lt;br&gt;&lt;br&gt;GND" style="rounded=0;whiteSpace=wrap;html=1;" vertex="1" parent="1">
          <mxGeometry x="710" y="500" width="40" height="90" as="geometry" />
        </mxCell>
        <mxCell id="K2q1J-WdzYa1QJRRbtLY-5" value="5V&lt;br&gt;&lt;br&gt;A1&lt;br&gt;&lt;br&gt;GND" style="rounded=0;whiteSpace=wrap;html=1;" vertex="1" parent="1">
          <mxGeometry x="710" y="400" width="40" height="90" as="geometry" />
        </mxCell>
        <mxCell id="K2q1J-WdzYa1QJRRbtLY-6" value="A2&lt;br&gt;&lt;br&gt;GND" style="rounded=0;whiteSpace=wrap;html=1;" vertex="1" parent="1">
          <mxGeometry x="710" y="330" width="40" height="60" as="geometry" />
        </mxCell>
        <mxCell id="K2q1J-WdzYa1QJRRbtLY-8" value="A3&lt;br&gt;&lt;br&gt;GND" style="rounded=0;whiteSpace=wrap;html=1;" vertex="1" parent="1">
          <mxGeometry x="710" y="260" width="40" height="60" as="geometry" />
        </mxCell>
        <mxCell id="K2q1J-WdzYa1QJRRbtLY-9" value="GND&lt;br&gt;&lt;br&gt;3.3V" style="rounded=0;whiteSpace=wrap;html=1;" vertex="1" parent="1">
          <mxGeometry x="710" y="190" width="40" height="60" as="geometry" />
        </mxCell>
        <mxCell id="K2q1J-WdzYa1QJRRbtLY-12" value="" style="group" vertex="1" connectable="0" parent="1">
          <mxGeometry x="710" y="120" width="40" height="60" as="geometry" />
        </mxCell>
        <mxCell id="K2q1J-WdzYa1QJRRbtLY-13" value="" style="endArrow=none;html=1;rounded=0;entryX=1;entryY=0.5;entryDx=0;entryDy=0;exitX=0;exitY=0.5;exitDx=0;exitDy=0;" edge="1" parent="K2q1J-WdzYa1QJRRbtLY-12">
          <mxGeometry width="50" height="50" relative="1" as="geometry">
            <mxPoint y="10" as="sourcePoint" />
            <mxPoint x="40" y="10" as="targetPoint" />
          </mxGeometry>
        </mxCell>
        <mxCell id="K2q1J-WdzYa1QJRRbtLY-10" value="SDA&lt;br&gt;&lt;br&gt;SCL" style="rounded=0;whiteSpace=wrap;html=1;" vertex="1" parent="K2q1J-WdzYa1QJRRbtLY-12">
          <mxGeometry width="40" height="60" as="geometry" />
        </mxCell>
        <mxCell id="K2q1J-WdzYa1QJRRbtLY-27" value="" style="endArrow=none;html=1;rounded=0;exitX=0.025;exitY=0.671;exitDx=0;exitDy=0;exitPerimeter=0;" edge="1" parent="K2q1J-WdzYa1QJRRbtLY-12">
          <mxGeometry width="50" height="50" relative="1" as="geometry">
            <mxPoint y="29.840000000000003" as="sourcePoint" />
            <mxPoint x="40" y="29.840000000000003" as="targetPoint" />
          </mxGeometry>
        </mxCell>
        <mxCell id="K2q1J-WdzYa1QJRRbtLY-16" value="" style="endArrow=none;html=1;rounded=0;entryX=1;entryY=0.5;entryDx=0;entryDy=0;exitX=0;exitY=0.5;exitDx=0;exitDy=0;" edge="1" parent="1" source="K2q1J-WdzYa1QJRRbtLY-9" target="K2q1J-WdzYa1QJRRbtLY-9">
          <mxGeometry width="50" height="50" relative="1" as="geometry">
            <mxPoint x="720" y="140" as="sourcePoint" />
            <mxPoint x="760" y="140" as="targetPoint" />
          </mxGeometry>
        </mxCell>
        <mxCell id="K2q1J-WdzYa1QJRRbtLY-17" value="" style="endArrow=none;html=1;rounded=0;entryX=1;entryY=0.5;entryDx=0;entryDy=0;exitX=0;exitY=0.5;exitDx=0;exitDy=0;" edge="1" parent="1" source="K2q1J-WdzYa1QJRRbtLY-8" target="K2q1J-WdzYa1QJRRbtLY-8">
          <mxGeometry width="50" height="50" relative="1" as="geometry">
            <mxPoint x="730" y="150" as="sourcePoint" />
            <mxPoint x="770" y="150" as="targetPoint" />
          </mxGeometry>
        </mxCell>
        <mxCell id="K2q1J-WdzYa1QJRRbtLY-18" value="" style="endArrow=none;html=1;rounded=0;entryX=1;entryY=0.5;entryDx=0;entryDy=0;exitX=0;exitY=0.5;exitDx=0;exitDy=0;" edge="1" parent="1" source="K2q1J-WdzYa1QJRRbtLY-6" target="K2q1J-WdzYa1QJRRbtLY-6">
          <mxGeometry width="50" height="50" relative="1" as="geometry">
            <mxPoint x="740" y="160" as="sourcePoint" />
            <mxPoint x="780" y="160" as="targetPoint" />
          </mxGeometry>
        </mxCell>
        <mxCell id="K2q1J-WdzYa1QJRRbtLY-22" value="" style="endArrow=none;html=1;rounded=0;exitX=0.025;exitY=0.671;exitDx=0;exitDy=0;exitPerimeter=0;" edge="1" parent="1">
          <mxGeometry width="50" height="50" relative="1" as="geometry">
            <mxPoint x="710" y="560" as="sourcePoint" />
            <mxPoint x="750" y="560" as="targetPoint" />
          </mxGeometry>
        </mxCell>
        <mxCell id="K2q1J-WdzYa1QJRRbtLY-23" value="" style="endArrow=none;html=1;rounded=0;exitX=0.025;exitY=0.671;exitDx=0;exitDy=0;exitPerimeter=0;" edge="1" parent="1">
          <mxGeometry width="50" height="50" relative="1" as="geometry">
            <mxPoint x="710" y="530" as="sourcePoint" />
            <mxPoint x="750" y="530" as="targetPoint" />
          </mxGeometry>
        </mxCell>
        <mxCell id="K2q1J-WdzYa1QJRRbtLY-25" value="" style="endArrow=none;html=1;rounded=0;exitX=0.025;exitY=0.671;exitDx=0;exitDy=0;exitPerimeter=0;" edge="1" parent="1">
          <mxGeometry width="50" height="50" relative="1" as="geometry">
            <mxPoint x="710" y="460" as="sourcePoint" />
            <mxPoint x="750" y="460" as="targetPoint" />
          </mxGeometry>
        </mxCell>
        <mxCell id="K2q1J-WdzYa1QJRRbtLY-26" value="" style="endArrow=none;html=1;rounded=0;exitX=0.025;exitY=0.671;exitDx=0;exitDy=0;exitPerimeter=0;" edge="1" parent="1">
          <mxGeometry width="50" height="50" relative="1" as="geometry">
            <mxPoint x="710" y="430" as="sourcePoint" />
            <mxPoint x="750" y="430" as="targetPoint" />
          </mxGeometry>
        </mxCell>
      </root>
    </mxGraphModel>
  </diagram>
</mxfile>
